<?xml version="1.0" encoding="UTF-8"?>
<svg enable-background="new 0 0 40 40" version="1.1" viewBox="0 0 17.1 17.1" xml:space="preserve" xmlns="http://www.w3.org/2000/svg" xmlns:cc="http://creativecommons.org/ns#" xmlns:dc="http://purl.org/dc/elements/1.1/" xmlns:rdf="http://www.w3.org/1999/02/22-rdf-syntax-ns#"><metadata><rdf:RDF><cc:Work rdf:about=""><dc:format>image/svg+xml</dc:format><dc:type rdf:resource="http://purl.org/dc/dcmitype/StillImage"/><dc:title/></cc:Work></rdf:RDF></metadata>
<g transform="translate(-11.4,-11.4)">
	
		
			
				<path d="m20 22.5c-1.4 0-2.5-1.1-2.5-2.5s1.1-2.5 2.5-2.5 2.5 1.1 2.5 2.5-1.1 2.5-2.5 2.5zm0-4c-0.8 0-1.5 0.7-1.5 1.5s0.7 1.5 1.5 1.5 1.5-0.7 1.5-1.5-0.7-1.5-1.5-1.5z" fill="#231815"/>
			
			
				<path d="m20.7 28.5h-1.3c-0.6 0-1.2-0.5-1.2-1.2v-1c-0.4-0.1-0.8-0.3-1.2-0.5h-0.2l-0.7 0.7c-0.4 0.4-1.2 0.4-1.7 0l-1-1c-0.5-0.5-0.5-1.2 0-1.7l0.7-0.7c0.1-0.1 0-0.2 0-0.2-0.2-0.3-0.3-0.7-0.4-1 0-0.1-0.1-0.1-0.2-0.1h-0.9c-0.6 0-1.2-0.5-1.2-1.2v-1.3c0-0.6 0.5-1.2 1.2-1.2h0.9c0.1 0 0.1-0.1 0.2-0.1 0.1-0.4 0.3-0.7 0.4-1v-0.2l-0.7-0.7c-0.5-0.5-0.5-1.2 0-1.7l1-1c0.4-0.4 1.2-0.4 1.7 0l0.7 0.7c0.1 0.1 0.1 0.1 0.2 0 0.3-0.2 0.7-0.3 1-0.4 0.1 0 0.1-0.1 0.1-0.2v-0.9c0-0.6 0.5-1.2 1.2-1.2h1.3c0.6 0 1.2 0.5 1.2 1.2v0.9c0 0.1 0.1 0.1 0.1 0.2 0.3 0.1 0.7 0.3 1 0.4h0.2l0.7-0.7c0.4-0.4 1.2-0.4 1.7 0l1 1c0.5 0.5 0.5 1.2 0 1.7l-0.7 0.7c-0.1 0.1 0 0.2 0 0.2 0.2 0.3 0.3 0.7 0.4 1 0 0.1 0.1 0.1 0.2 0.1h0.9c0.6 0 1.2 0.5 1.2 1.2v1.3c0 0.6-0.5 1.2-1.2 1.2h-0.9c-0.1 0-0.1 0.1-0.2 0.1-0.1 0.4-0.3 0.7-0.4 1v0.2l0.7 0.7c0.5 0.5 0.5 1.2 0 1.7l-1 1c-0.4 0.4-1.2 0.4-1.7 0l-0.7-0.7c-0.1-0.1-0.1-0.1-0.2 0-0.3 0.2-0.7 0.3-1 0.4-0.1 0-0.1 0.1-0.1 0.2v0.9c0 0.7-0.5 1.2-1.1 1.2zm-3.8-3.7c0.2 0 0.4 0 0.6 0.1 0.4 0.2 0.9 0.4 1.3 0.5 0.2 0.1 0.4 0.3 0.4 0.5v1.4c0 0.1 0.1 0.2 0.2 0.2h1.3c0.1 0 0.2-0.1 0.2-0.2v-0.9c0-0.5 0.3-1 0.8-1.1 0.3-0.1 0.6-0.2 0.9-0.4 0.5-0.2 1-0.2 1.4 0.2l0.7 0.7c0.1 0.1 0.2 0.1 0.2 0l1-1c0.1-0.1 0.1-0.2 0-0.2l-0.7-0.7c-0.4-0.4-0.4-0.9-0.2-1.4 0.1-0.3 0.3-0.6 0.4-0.9 0.2-0.5 0.6-0.8 1.1-0.8h0.9c0.1 0 0.2-0.1 0.2-0.2v-1.3c0-0.1-0.1-0.2-0.2-0.2h-0.9c-0.5 0-1-0.3-1.1-0.8-0.1-0.3-0.2-0.6-0.4-0.9-0.2-0.5-0.2-1 0.2-1.4l0.7-0.7c0.1-0.1 0.1-0.2 0-0.2l-1-1c-0.1-0.1-0.2-0.1-0.2 0l-0.7 0.7c-0.4 0.3-0.9 0.4-1.4 0.2-0.3-0.1-0.6-0.3-0.9-0.4-0.5-0.2-0.8-0.6-0.8-1.1v-0.9c0-0.1-0.1-0.2-0.2-0.2h-1.3c-0.1 0-0.2 0.1-0.2 0.2v0.9c0 0.5-0.3 1-0.8 1.1-0.3 0.1-0.6 0.2-0.9 0.4-0.5 0.2-1 0.2-1.4-0.2l-0.7-0.7c-0.1-0.1-0.2-0.1-0.2 0l-1 1c-0.1 0.1-0.1 0.2 0 0.2l0.7 0.7c0.4 0.4 0.4 0.9 0.2 1.4-0.1 0.3-0.3 0.6-0.4 0.9-0.2 0.5-0.6 0.8-1.1 0.8h-0.9c-0.1 0-0.2 0.1-0.2 0.2v1.3c0 0.1 0.1 0.2 0.2 0.2h0.9c0.5 0 1 0.3 1.1 0.8 0.1 0.3 0.2 0.6 0.4 0.9 0.2 0.5 0.2 1-0.2 1.4l-0.7 0.7c-0.1 0.1-0.1 0.2 0 0.2l1 1c0.1 0.1 0.2 0.1 0.2 0l0.7-0.7c0.2-0.2 0.5-0.3 0.8-0.3z" fill="#231815"/>
			
		
	
</g>
</svg>
